# xmcd
#
# Track frame offsets:
#	150
#	17608
#	34189
#	48371
#	76962
#
# Disc length: 1556 seconds
#
# Revision: 1
# Processed by: cddbd v1.5.1PL0 Copyright (c) Steve Scherf et al.
# Submitted via: audiograbber 1.83.01
#
DISCID=30061205
DTITLE=The BossHoss - Hey Ya! Single
DYEAR=2005
DGENRE=Country
TTITLE0=Hey Ya! Radio Version
TTITLE1=Hey Ya! Franky Mix
TTITLE2=Remedy Album Version
TTITLE3=Hey Ya! Sing-Along-Power Mix
TTITLE4=Hey Ya! Video
EXTD=
EXTT0=
EXTT1=
EXTT2=
EXTT3=
EXTT4=
PLAYORDER=
